<svg width="28" height="28" viewBox="0 0 28 28" fill="none" xmlns="http://www.w3.org/2000/svg">
<g clip-path="url(#clip0_233_38)">
<path d="M21.0361 19.3864L26.0329 24.3821L24.3821 26.0329L19.3864 21.0361C17.5276 22.5262 15.2156 23.3366 12.8333 23.3333C7.03725 23.3333 2.33325 18.6293 2.33325 12.8333C2.33325 7.03725 7.03725 2.33325 12.8333 2.33325C18.6293 2.33325 23.3333 7.03725 23.3333 12.8333C23.3366 15.2156 22.5262 17.5276 21.0361 19.3864ZM18.6958 18.5208C20.1764 16.9981 21.0033 14.9571 20.9999 12.8333C20.9999 8.32059 17.3448 4.66659 12.8333 4.66659C8.32059 4.66659 4.66659 8.32059 4.66659 12.8333C4.66659 17.3448 8.32059 20.9999 12.8333 20.9999C14.9571 21.0033 16.9981 20.1764 18.5208 18.6958L18.6958 18.5208Z" fill="#222864"/>
</g>
<defs>
<clipPath id="clip0_233_38">
<rect width="28" height="28" fill="white"/>
</clipPath>
</defs>
</svg>
