<svg width="26" height="27" viewBox="0 0 26 27" fill="none" xmlns="http://www.w3.org/2000/svg">
<circle cx="13" cy="14" r="13" fill="#559399"/>
<path d="M15.5001 13.1906L10.7483 16.4283C10.7145 16.4513 10.6753 16.4644 10.6348 16.4664C10.5943 16.4684 10.554 16.4591 10.5183 16.4395C10.4825 16.42 10.4526 16.3909 10.4318 16.3553C10.4109 16.3198 10.3999 16.2791 10.3999 16.2377V9.76232C10.3999 9.72088 10.4109 9.68022 10.4318 9.64467C10.4526 9.60912 10.4825 9.58002 10.5183 9.56046C10.554 9.5409 10.5943 9.53161 10.6348 9.53359C10.6753 9.53557 10.7145 9.54875 10.7483 9.5717L15.5001 12.8094C15.5308 12.8303 15.556 12.8587 15.5734 12.8919C15.5908 12.9252 15.5999 12.9623 15.5999 13C15.5999 13.0377 15.5908 13.0748 15.5734 13.1081C15.556 13.1413 15.5308 13.1697 15.5001 13.1906Z" fill="white"/>
</svg>
